<svg xmlns="http://www.w3.org/2000/svg" width="1200" height="230" viewBox="0 0 1200 230" role="img" aria-label="Live GitHub statistics for NAME0x0, regenerated daily from the GitHub API">
  <style> text { font-family: 'Helvetica Neue', Helvetica, Arial, sans-serif; } </style>
  <rect width="1200" height="230" fill="#0A0A0A"/>
  <rect x="0" y="0" width="6" height="230" fill="#FF6B00"/>
  <text x="34" y="30" font-size="12" font-weight="800" letter-spacing="4" fill="#FF6B00">&#8220;LIVE TELEMETRY&#8221;</text>
  <text x="1166" y="30" text-anchor="end" font-size="10" font-weight="600" letter-spacing="2" fill="#F4F1EA" opacity="0.45">REFRESHED 2026-07-17 04:06 UTC &#183; SOURCE: GITHUB API &#183; NO THIRD PARTIES</text>
  <text x="34" y="72" font-size="40" font-weight="900" fill="#F4F1EA">52</text><text x="34" y="96" font-size="11" font-weight="700" letter-spacing="3" fill="#F4F1EA" opacity="0.55">REPOS</text><text x="274" y="72" font-size="40" font-weight="900" fill="#F4F1EA">55</text><text x="274" y="96" font-size="11" font-weight="700" letter-spacing="3" fill="#F4F1EA" opacity="0.55">STARS</text><text x="514" y="72" font-size="40" font-weight="900" fill="#F4F1EA">81</text><text x="514" y="96" font-size="11" font-weight="700" letter-spacing="3" fill="#F4F1EA" opacity="0.55">FOLLOWERS</text><text x="754" y="72" font-size="40" font-weight="900" fill="#F4F1EA">728</text><text x="754" y="96" font-size="11" font-weight="700" letter-spacing="3" fill="#F4F1EA" opacity="0.55">COMMITS 2026</text>
  <rect x="34" y="128" width="796" height="14" fill="#F4F1EA"/><rect x="830" y="128" width="200" height="14" fill="#C9C4B8"/><rect x="1030" y="128" width="53" height="14" fill="#9E988A"/><rect x="1083" y="128" width="52" height="14" fill="#FF6B00"/><rect x="1135" y="128" width="31" height="14" fill="#6E695E"/>
  <rect x="34" y="154" width="10" height="10" fill="#F4F1EA"/><text x="52" y="163" font-size="10" font-weight="700" letter-spacing="2" fill="#F4F1EA" opacity="0.65">PYTHON 70%</text><rect x="170" y="154" width="10" height="10" fill="#C9C4B8"/><text x="188" y="163" font-size="10" font-weight="700" letter-spacing="2" fill="#F4F1EA" opacity="0.65">JAVASCRIPT 18%</text><rect x="339" y="154" width="10" height="10" fill="#9E988A"/><text x="357" y="163" font-size="10" font-weight="700" letter-spacing="2" fill="#F4F1EA" opacity="0.65">TYPESCRIPT 5%</text><rect x="500" y="154" width="10" height="10" fill="#FF6B00"/><text x="518" y="163" font-size="10" font-weight="700" letter-spacing="2" fill="#F4F1EA" opacity="0.65">C# 5%</text><rect x="594" y="154" width="10" height="10" fill="#6E695E"/><text x="612" y="163" font-size="10" font-weight="700" letter-spacing="2" fill="#F4F1EA" opacity="0.65">RUST 3%</text>
  <text x="34" y="206" font-size="13" font-weight="800" letter-spacing="2" fill="#FF6B00">LAST SHIP: NAME0x0 — “feat: replace gh-ascii service with self-hosted ASCII card…” — 2026-07-17</text>
</svg>
